<?xml version="1.0" standalone="yes"?>
<svg width="35" height="35">
<path style="fill:#ffffff; stroke:none;" d="M0 0L0 35L15 35L15 32L6 31L11 27L11 26L3 28C2.61318 20.5039 8.6745 21.2303 12.4475 15.9066C15.4451 11.6771 15.4858 5.00027 16 0L0 0z"/>
<path style="fill:#010101; stroke:none;" d="M16 0C14.98 4.81455 15.335 10.8393 12.4367 14.9992C8.52958 20.6071 1.79853 20.2502 3 28L11 26L11 27L6 31L15 35C19.8232 32.4569 28.1372 31.4957 25 25C30.4116 26.5499 33.0479 24.7035 32 19L30 21L29 21L19 0L16 0z"/>
<path style="fill:#ffffff; stroke:none;" d="M19 0C20.3602 9.75697 22.3579 14.109 29 21L30 21L32 19C32.4927 24.4878 30.4271 26.142 25 25C26.9722 31.6567 20.5753 31.1197 16 34L16 35L35 35L35 0L19 0z"/>
<path style="fill:#010101; stroke:none;" d="M12 14L13 15L12 14z"/>
</svg>
