<?xml version="1.0" standalone="yes"?>
<svg width="35" height="35">
<path style="fill:#ffffff; stroke:none;" d="M0 0L0 35L15 35L15 32L6 31L11 27L11 26L3 28C2.61318 20.5039 8.6745 21.2303 12.4475 15.9066C15.4451 11.6771 15.4858 5.00027 16 0L0 0z"/>
<path style="fill:#010113; stroke:none;" d="M16 0L15 4L16 4L19 2L16 0z"/>
<path style="fill:#ffffff; stroke:none;" d="M19 0C20.3602 9.75697 22.3579 14.109 29 21L30 21L32 19C32.4927 24.4878 30.4271 26.142 25 25C26.9722 31.6567 20.5753 31.1197 16 34L16 35L35 35L35 0L19 0z"/>
<path style="fill:#010155; stroke:none;" d="M16 2L16 3L18 5L19 5L18 1L16 2z"/>
<path style="fill:#0105d5; stroke:none;" d="M17 2L13.2616 15.8264L4 27L13 25L8 31L16 32L26 30L23 24L31 25L21.0093 13.9599L17 2z"/>
<path style="fill:#010113; stroke:none;" d="M19 3L20 8L21 8L19 3z"/>
<path style="fill:#010155; stroke:none;" d="M16 4L17 5L16 4z"/>
<path style="fill:#010113; stroke:none;" d="M15 5L15 8L16 8L15 5z"/>
<path style="fill:#010155; stroke:none;" d="M19 7L19 12L20 12L19 7M15.3333 8.66667L15.6667 9.33333L15.3333 8.66667z"/>
<path style="fill:#010113; stroke:none;" d="M14 9L15 10L14 9M20 9L21 15L22 15L20 9M14.3333 11.6667L14.6667 12.3333L14.3333 11.6667z"/>
<path style="fill:#010155; stroke:none;" d="M14.3333 13.6667L14.6667 14.3333L14.3333 13.6667M20 13L21 14L20 13z"/>
<path style="fill:#010113; stroke:none;" d="M12 14L13 15L12 14M13 15L11 18L13 15z"/>
<path style="fill:#010155; stroke:none;" d="M21 15L22 16L21 15M13 16L14 17L13 16M22 16L24 18L22 16z"/>
<path style="fill:#010113; stroke:none;" d="M23 16L24 17L23 16z"/>
<path style="fill:#010155; stroke:none;" d="M12 17L13 18L12 17z"/>
<path style="fill:#010113; stroke:none;" d="M24 17L25 18L24 17z"/>
<path style="fill:#010155; stroke:none;" d="M10 18L11 19L10 18M25 18L27 20L25 18z"/>
<path style="fill:#010113; stroke:none;" d="M26 18L27 19L26 18M8 19L9 20L8 19z"/>
<path style="fill:#010155; stroke:none;" d="M9 19L10 20L9 19z"/>
<path style="fill:#010113; stroke:none;" d="M27.6667 19.3333L28.3333 19.6667L27.6667 19.3333M30 19L32 22L33 21L32 19L30 19z"/>
<path style="fill:#010155; stroke:none;" d="M8 20L9 21L8 20M28 20L29 21L28 20z"/>
<path style="fill:#010113; stroke:none;" d="M2 25L3 25L7 22C4.01163 21.0168 2.93721 22.1499 2 25z"/>
<path style="fill:#010155; stroke:none;" d="M29.6667 21.3333L30.3333 21.6667L29.6667 21.3333M5 22L6 23L5 22M31 22L31 25L32 25L31 22M3 23L3 27L4 27L5 23L3 23z"/>
<path style="fill:#010113; stroke:none;" d="M32 23L33 24L32 23z"/>
<path style="fill:#010155; stroke:none;" d="M23 24L26 29L27 25L23 24M9 25L9 26L13 26L13 25L9 25z"/>
<path style="fill:#010113; stroke:none;" d="M11 25L12 26L11 25M24.3333 25.6667L24.6667 26.3333L24.3333 25.6667M26 25L26 26L32 26L26 25z"/>
<path style="fill:#010155; stroke:none;" d="M5 26L5 27L8 27L5 26z"/>
<path style="fill:#010113; stroke:none;" d="M8 26L9 27L8 26M3 27L3 28L6 28L3 27M9 27L6 31L9 27z"/>
<path style="fill:#010155; stroke:none;" d="M10 27L11 28L10 27z"/>
<path style="fill:#010113; stroke:none;" d="M25 27L26 30L27 30L27 27L25 27z"/>
<path style="fill:#010155; stroke:none;" d="M9 28L10 29L9 28M8 29L9 30L8 29M13 30L14 31L13 30M15 30L16 31L15 30M18.6667 30.3333L19.3333 30.6667L18.6667 30.3333z"/>
<path style="fill:#010113; stroke:none;" d="M20 30L21 31L20 30z"/>
<path style="fill:#010155; stroke:none;" d="M21 30L21 31L25 31L21 30z"/>
<path style="fill:#010113; stroke:none;" d="M25 30L26 31L25 30M8 31L10 33L8 31z"/>
<path style="fill:#010155; stroke:none;" d="M9 31L9 32L12 32L9 31z"/>
<path style="fill:#010113; stroke:none;" d="M12 31L12 32L15 35L19 31L18 31L17 33L12 31M24 31L25 32L24 31z"/>
<path style="fill:#010155; stroke:none;" d="M16.6667 32.3333L17.3333 32.6667L16.6667 32.3333z"/>
</svg>
