<?xml version="1.0" standalone="yes"?>
<svg width="35" height="35">
<path style="fill:#fdfffe; stroke:none;" d="M0 0L0 16L16 0L0 0z"/>
<path style="fill:#012b04; stroke:none;" d="M16 0L0 18L4 18L4 17L1 17L16 0z"/>
<path style="fill:#02fb19; stroke:none;" d="M17 0L1 17C5.99518 20.2384 4 29.617 4 35L31 35C31 29.617 29.0048 20.2384 34 17L17 0z"/>
<path style="fill:#012b04; stroke:none;" d="M18 0L31 17L31 18L35 18L18 0z"/>
<path style="fill:#fdfffe; stroke:none;" d="M19 0L35 16L35 0L19 0z"/>
<path style="fill:#66ff73; stroke:none;" d="M16 9L17 10L16 9z"/>
<path style="fill:#fdfffe; stroke:none;" d="M9 31L15 31L15 24L20 24L20 31L26 31C26 26.3666 27.3068 19.3314 24.9722 15.1736C21.2931 8.62111 12.4374 8.97112 9.6034 16.0903C7.91568 20.3299 9 26.4935 9 31z"/>
<path style="fill:#66ff73; stroke:none;" d="M18 9L19 10L18 9M13 11L14 12L13 11M21 11L22 12L21 11M12 12L13 13L12 12M22 12L23 13L22 12M9 14L10 15L9 14M25 14L26 15L25 14z"/>
<path style="fill:#fdfffe; stroke:none;" d="M0 18L0 35L4 35L4 18L0 18M31 18L31 35L35 35L35 18L31 18z"/>
</svg>
