<?xml version="1.0" standalone="yes"?>
<svg width="35" height="35">
<path style="fill:#fefefe; stroke:none;" d="M0 0C0 5.38942 -2.17652 14.95 4 17L4 18L0 18L0 35L4 35L4 18L5 18L5 35L30 35L30 18L31 18L31 35L35 35L35 18L31 18L31 17C37.1765 14.95 35 5.38942 35 0L0 0z"/>
<path style="fill:#060606; stroke:none;" d="M16 0L17 1L16 0M18 0L19 1L18 0M15 1L1 16L15 1M19 1L34 16L19 1z"/>
<path style="fill:#7c7c7c; stroke:none;" d="M16 9L17 10L16 9z"/>
<path style="fill:#060606; stroke:none;" d="M9 31L15 31L15 24L20 24L20 31L26 31C26 26.3666 27.3068 19.3314 24.9722 15.1736C21.2931 8.62111 12.4374 8.97112 9.6034 16.0903C7.91568 20.3299 9 26.4935 9 31z"/>
<path style="fill:#7c7c7c; stroke:none;" d="M18 9L19 10L18 9z"/>
<path style="fill:#bfbfbf; stroke:none;" d="M13 11L14 12L13 11M21 11L22 12L21 11z"/>
<path style="fill:#7c7c7c; stroke:none;" d="M12 12L13 13L12 12M22 12L23 13L22 12M9 14L10 15L9 14M25 14L26 15L25 14z"/>
<path style="fill:#060606; stroke:none;" d="M0 16L1 17L0 16M34 16L35 17L34 16z"/>
<path style="fill:#7c7c7c; stroke:none;" d="M0 17L0 18L4 18L0 17M31 17L31 18L35 18L31 17z"/>
<path style="fill:#bfbfbf; stroke:none;" d="M4 18L4 35L5 35L4 18M30 18L30 35L31 35L30 18z"/>
</svg>
