<?xml version="1.0" standalone="yes"?>
<svg width="35" height="35">
<path style="fill:#ffffff; stroke:none;" d="M0 0L0 35L12 35L16 29L13 19L11 22L11 20L4 26L2 26C2.50826 20.4918 6.25934 16.5696 11 14L11 11L14 12L16 0L0 0z"/>
<path style="fill:#010101; stroke:none;" d="M14 12L11 11L11 14C5.73769 15.8692 1.51083 20.2067 2 26L4 26L11 20L11 22L13 19L16 29L11 34L26 34L26 32L22 31L24 26L20 24L20 19L35 24L35 22L29 15L25 11C20.2483 9.55754 16.2364 -6.75784 14.9144 6.97608C14.7473 8.71143 14.4031 10.3068 14 12z"/>
<path style="fill:#ffffff; stroke:none;" d="M19 0C20.1668 4.89872 19.0839 10.0127 25 11L29 15L35 22L35 0L19 0M21 18L22 19L21 18M20 19L20 24L24 26L22 31L26 32L24 34L24 35L35 35L35 24L20 19M20 25L20 27L22 27L20 25M21 29L22 30L21 29M15.6667 34.3333L16.3333 34.6667L15.6667 34.3333M20 34L21 35L20 34z"/>
</svg>
