<?xml version="1.0" standalone="yes"?>
<svg width="35" height="35">
<path style="fill:#ffffff; stroke:none;" d="M0 0L0 35C7.11123 35 10.2016 34.0711 16 30L13 20L11 23L11 21L4 27L2 27C2.50826 21.4918 6.25934 17.5696 11 15L11 12L14 13L17 0L0 0z"/>
<path style="fill:#011304; stroke:none;" d="M15 11L16 11L19 1C14.1623 0.885406 15.0027 7.4709 15 11z"/>
<path style="fill:#ffffff; stroke:none;" d="M19 0C19.9457 5.09411 18.8954 10.9812 25 12L29 16L35 23L35 0L19 0z"/>
<path style="fill:#01b922; stroke:none;" d="M17 1C16.4784 13.1179 8.48042 15.3553 2 24L16 18C17.3979 23.8716 17.7165 28.7507 13 33L13 34L23 34L23 33C18.2911 28.7576 19 23.9408 19 18L33 24L29 17C19.1494 14.8915 21.3726 7.40048 17 1z"/>
<path style="fill:#016412; stroke:none;" d="M18.3333 1.66667L18.6667 2.33333L18.3333 1.66667z"/>
<path style="fill:#011304; stroke:none;" d="M19 2L19 7L20 7L19 2z"/>
<path style="fill:#016412; stroke:none;" d="M16 3L16 7L17 7L16 3M19 7L20 13L21 13L19 7M15 11L16 12L15 11z"/>
<path style="fill:#011304; stroke:none;" d="M20 11L21 12L20 11M10 14L13 13L10 14z"/>
<path style="fill:#016412; stroke:none;" d="M14 12L15 13L14 12z"/>
<path style="fill:#011304; stroke:none;" d="M21 12L21 13L25 13L21 12z"/>
<path style="fill:#016412; stroke:none;" d="M11 13L10 17L11 17L14 14L11 13M22 13L22 14L25 14L22 13z"/>
<path style="fill:#011304; stroke:none;" d="M24 14L27 17L24 14M5 20L6 20L11 16L5 20z"/>
<path style="fill:#016412; stroke:none;" d="M24 15L25 16L24 15M25 16L26 17L25 16z"/>
<path style="fill:#011304; stroke:none;" d="M28 16L29 17L28 16z"/>
<path style="fill:#016412; stroke:none;" d="M7.66667 17.3333L8.33333 17.6667L7.66667 17.3333M26.6667 17.3333L27.3333 17.6667L26.6667 17.3333z"/>
<path style="fill:#011304; stroke:none;" d="M29.3333 17.6667L29.6667 18.3333L29.3333 17.6667z"/>
<path style="fill:#016412; stroke:none;" d="M14 18L14 19L16 28L17 28C16.9969 24.0129 17.5976 20.3323 14 18M19 18L19 27L20 27L22 19L19 18M6 19L7 20L6 19M8 21L8 22L13 20L8 21z"/>
<path style="fill:#011304; stroke:none;" d="M13 19L13 20L15 23L16 23L16 19L13 19M20 19L20 20L27 22L27 21L20 19z"/>
<path style="fill:#ffffff; stroke:none;" d="M21 19L22 20L21 19z"/>
<path style="fill:#016412; stroke:none;" d="M24 19L25 20L24 19M29 19L30 20L29 19z"/>
<path style="fill:#011304; stroke:none;" d="M4 20L5 21L4 20M11 23L14 21C11.6038 20.4254 11.513 20.5249 11 23z"/>
<path style="fill:#ffffff; stroke:none;" d="M20 20L20 25C23.4209 24.3158 22.0485 26.5121 20 26L20 27L20 28L24 27L24 31L21 30L21 31L35 35L35 25L20 20z"/>
<path style="fill:#016412; stroke:none;" d="M26 20L27 21L26 20M30 20L31 21L30 20z"/>
<path style="fill:#011304; stroke:none;" d="M3 21L4 22L3 21M9 21L10 22L9 21z"/>
<path style="fill:#016412; stroke:none;" d="M27 21L27 22L30 23L27 21M31 21L32 22L31 21z"/>
<path style="fill:#011304; stroke:none;" d="M2 22L3 23L2 22z"/>
<path style="fill:#016412; stroke:none;" d="M6 22L7 23L6 22z"/>
<path style="fill:#011304; stroke:none;" d="M7 22L8 23L7 22M20 22L21 23L20 22M28 22L29 23L28 22z"/>
<path style="fill:#016412; stroke:none;" d="M32 22L34 24L32 22z"/>
<path style="fill:#011304; stroke:none;" d="M33 22L34 23L33 22M1 23L2 27L4 27L7 24L7 23L1 23z"/>
<path style="fill:#016412; stroke:none;" d="M4 23L5 24L4 23z"/>
<path style="fill:#011304; stroke:none;" d="M29 23L29 24L35 23L29 23z"/>
<path style="fill:#016412; stroke:none;" d="M31 23L32 24L31 23M2 24L3 25L2 24z"/>
<path style="fill:#011304; stroke:none;" d="M21 24L22 27L21 24M15.3333 25.6667L15.6667 26.3333L15.3333 25.6667M19 27L22 32L21 30L24 31L24 27L19 27M16 28L11 35L16 28z"/>
<path style="fill:#016412; stroke:none;" d="M16 30L17 31L16 30M19 30L20 31L19 30M15 31L16 32L15 31M20 31L21 32L20 31M22 32L23 33L22 32z"/>
<path style="fill:#011304; stroke:none;" d="M23 32L26 35L23 32z"/>
<path style="fill:#016412; stroke:none;" d="M13.6667 34.3333L14.3333 34.6667L13.6667 34.3333z"/>
<path style="fill:#011304; stroke:none;" d="M15 34L15 35L20 35L15 34z"/>
<path style="fill:#016412; stroke:none;" d="M20 34L20 35L23 35L20 34z"/>
</svg>
