<?xml version="1.0" encoding="utf8" standalone="no"?>
<svg height="307" viewBox="0 0 257.236 307" width="257.23599" xml:space="preserve" xmlns="http://www.w3.org/2000/svg"><defs></defs>
		
			<path style="fill:#ff0066; fill-opacity=0.0; stroke:none;" d="m256.123,219.001c0,0 .383,1.655.34,3.396-.041,1.706-.51,5.434-.51,4.585s-1.527-1.91-1.527-1.91l-.213,1.485-1.188.043-.042-2.378-36.041-16.343c0,0-.042-2.038-.212-2.08-.042,2.037.085,3.396-.17,3.565-.339-.127-39.887-17.688-40.752-18.169-.382-.212-.17-1.952-.17-1.952l-10.188-1.528-.042,1.358c0,0-21.438-3.014-22.032-2.632s.553,23.433-.467,39.055-2.759,24.026-3.523,27.04c-.713,2.813-.127,3.438 1.231,4.627s28.653,21.396 30.946,23.136c2.251,1.709 2.293,2.49 2.293,3.523 0,1.358.042,10.315.042,10.315l-37.993-9.254c0,0-.213,3.777-.764,4.329s-1.698.34-1.698.34-.765,7.854-1.188,8.363-1.146.764-1.146.764-1.694,8.099-2.473,8.311v.01l-.016-.005c-.006.001-.012.005-.016.005v-.01c-.779-.212-2.474-8.311-2.474-8.311s-.722-.255-1.146-.764-1.188-8.363-1.188-8.363-1.146.213-1.698-.34-.764-4.329-.764-4.329l-37.993,9.254c0,0 .042-8.957.042-10.315 0-1.033.042-1.814 2.292-3.523 2.292-1.74 29.588-21.947 30.946-23.136s1.944-1.814 1.231-4.627c-.764-3.014-2.504-11.419-3.523-27.04s.127-38.673-.467-39.055-22.032,2.632-22.032,2.632l-.042-1.358-10.188,1.528c0,0 .212,1.74-.17,1.952-.865.481-40.413,18.042-40.752,18.169-.255-.17-.127-1.528-.17-3.565-.17.042-.212,2.08-.212,2.08l-36.042,16.343-.042,2.378-1.188-.043-.212-1.485c0,0-1.528,1.062-1.528,1.91s-.468-2.879-.509-4.585c-.042-1.74.34-3.396.34-3.396s-1.231.382-1.104-1.231c.082-1.029 3.269-5.73 3.269-5.73s.226-.705.187-1.203c-.045-.579.661-.952 1.034-1.283 .216-.191-.023-1.241-.023-1.241s11.943-10.241 32.636-26.285c20.659-16.018 45.11-35.658 45.11-35.658s0-1.132-.226-2.717c-.227-1.584-.396-2.264-.396-2.264s-1.245-.396-1.585-1.415c-.253-.76-.905-6.283-.792-11.264s.396-7.584.736-8.377 1.487-1.143 2.943-1.358c1.528-.226 7.458-.086 8.886.113 1.356.189 2.208.396 2.434,2.321 .226,1.924.283,8.546.113,11.263-.121,1.934-.623,4.132-.34,4.245s5.207-4.698 7.924-6.622c2.717-1.925 7.358-5.943 7.924-7.188s.623-1.415.962-.283 .283,2.264-.17,3.056-.679,1.812-.227,2.264c.17.17 1.528-.962 1.868-1.642s0-1.981.227-2.547 1.113-2.208 1.075-3.566c-.226-8.094-.501-20.206-.566-46.695-.069-28.346.212-36.814 3.792-51.959 3.25-13.748 5.692-16.467 6.942-18.45 1.156-1.833 3.765-3.257 4.857-3.282v-.002l.016.001 .016-.001v.002c1.091.025 3.699,1.45 4.855,3.282 1.25,1.982 3.691,4.702 6.942,18.45 3.58,15.145 3.861,23.613 3.792,51.959-.064,26.489-.34,38.602-.566,46.695-.037,1.358.85,3 1.076,3.566s-.113,1.868.227,2.547 1.697,1.812 1.867,1.642c.453-.453.227-1.472-.227-2.264s-.51-1.924-.17-3.056 .396-.962.963.283c.565,1.245 5.207,5.264 7.924,7.188s7.641,6.735 7.924,6.622-.219-2.311-.34-4.245c-.17-2.717-.113-9.339.113-11.263s1.078-2.131 2.434-2.321c1.429-.2 7.358-.339 8.887-.113 1.455.216 2.604.566 2.943,1.358s.623,3.396.736,8.377-.54,10.504-.793,11.264c-.34,1.019-1.585,1.415-1.585,1.415s-.17.679-.396,2.264c-.227,1.585-.227,2.717-.227,2.717s24.451,19.641 45.109,35.658c20.693,16.044 32.637,26.285 32.637,26.285s-.24,1.05-.023,1.241c.373.331 1.079.704 1.033,1.283-.039.498.187,1.203.187,1.203s3.188,4.701 3.27,5.73c.125,1.613-1.106,1.231-1.106,1.231zm-247.587-11.908-2.393,1.834 .207.27 2.414-1.85-.228-.254zm4.799-3.678-4.529,3.471 .227.254 4.51-3.457-.208-.268zm4.809-3.686-4.539,3.479 .208.269 4.511-3.457-.18-.291zm6.059-4.643-5.788,4.436 .18.291 5.808-4.452-.2-.275zm5.587-4.281-5.318,4.074 .2.275 5.323-4.08-.205-.269zm5.648-4.328-5.378,4.121 .206.271 5.368-4.114-.196-.278zm5.84-4.477-5.571,4.27 .196.277 5.607-4.297-.232-.25zm5.894-4.517-5.623,4.31 .231.25 5.585-4.28-.193-.28zm5.845-4.479-5.575,4.272 .193.28 5.556-4.259-.174-.293zm5.802-4.447-5.531,4.238 .174.295 5.551-4.254-.194-.279zm5.578-4.274-5.308,4.066 .194.279 5.317-4.074-.203-.271zm5.572-4.27-5.302,4.063 .204.271 5.273-4.041-.175-.293zm6.565-5.033-6.294,4.824 .175.294 6.265-4.801-.146-.317zm1.717-1.315-1.44,1.104 .145.316 1.429-1.096-.134-.324zm5.378-4.121-5.098,3.907 .134.325 5.171-3.963-.207-.269zm89.978,0-.207.27 5.172,3.963 .133-.325-5.098-3.908zm5.377,4.121-.133.325 1.43,1.096 .145-.316-1.442-1.105zm1.718,1.315-.146.317 6.266,4.801 .174-.294-6.294-4.824zm6.565,5.033-.175.294 5.273,4.041 .204-.271-5.302-4.064zm5.572,4.27-.204.271 5.317,4.074 .193-.279-5.306-4.066zm5.578,4.274-.194.279 5.551,4.254 .174-.295-5.531-4.238zm5.801,4.447-.174.294 5.557,4.259 .193-.28-5.576-4.273zm5.846,4.479-.193.279 5.584,4.28 .232-.25-5.623-4.309zm5.894,4.517-.231.25 5.607,4.297 .195-.277-5.571-4.27zm5.84,4.477-.195.277 5.368,4.114 .205-.271-5.378-4.12zm5.648,4.328-.205.27 5.323,4.08 .199-.275-5.317-4.075zm5.587,4.281-.199.274 5.809,4.452 .18-.291-5.79-4.435zm6.059,4.643-.18.29 4.511,3.457 .208-.269-4.539-3.478zm4.809,3.686-.208.268 4.51,3.457 .228-.254-4.53-3.471zm4.8,3.678-.228.254 2.414,1.85 .206-.27-2.392-1.834z" fill-rule="evenodd"></path>
		
	</svg>
